<?xml version="1.0" encoding="UTF-8"?>
<svg id="Layer_1" data-name="Layer 1" xmlns="http://www.w3.org/2000/svg" viewBox="0 0 1224 792">
  <defs>
    <style>
      .cls-1 {
        fill: none;
        stroke: #231f20;
        stroke-miterlimit: 10;
        stroke-width: 3px;
      }
    </style>
  </defs>
  <path class="cls-1" d="m280.46,219.68c10.75-7.64,25-8.99,37.93-6.41,12.93,2.57,24.86,8.67,36.45,14.95,11.59,6.28,23.18,12.87,35.84,16.55s26.75,4.22,38.66-1.45c19.17-9.13,28-37.73,7.93-51.17-7.29-4.89-16.79-5.56-25.36-3.64-12.07,2.71-22.56,10.04-32.04,17.98-55.68,46.68-81.66,115.32-112.43,178.94-19.72,40.76-40.45,81.05-63.72,119.92-42.41,70.85-66.87,104.07-95.08,103.67-22.86-.33-20.61-22.45-16.39-38.54,5.77-22,19.15-41.98,37.49-55.47,18.01-13.25,39.63-19.96,60.53-27.14,21.15-7.27,46.93-16.85,63.05-32.96,5.98-5.97,10.47-13.24,14.67-20.57,10.61-18.52,19.8-38.04,33.27-54.6,11.18-13.75,22.04-6.61,34.11,2.25,10.06,7.38,21.11,13.86,33.34,16.32,33.65,6.76,67.06-31.64,52.78-64.43-8.34-19.13-28.77-21.72-54.11-3.47-25.34,18.26-63.07,77.45-58.92,128.37s75.23,26.28,106.39-5.07,47.53-77.96,56.43-94.16-39.82,104.9-49.79,122.01,75.04-165.59,123.27-148.42c48.23,17.17-23.56,102.64-11.78,138.99s83.41-57.02,83.41-57.02"/>
  <path class="cls-1" d="m834.58,226.61c7.94-5.9,17.11-11.27,26.99-10.77,5.38.27,10.52,2.29,15.28,4.81,8.55,4.54,16.1,10.74,24.33,15.85s17.54,9.21,27.22,8.82c14.08-.58,23.71-11.11,23.02-25.04-.37-7.45-3.48-14.72-11.38-16.59-5.28-1.25-10.84.08-15.88,2.07-19.36,7.65-31.76,23.7-43.17,40.45-12.18,17.88-22.06,37.22-31.08,56.85-25.03,54.44-44.2,112.1-77.55,161.88-6.85,10.23-14.46,20.26-24.6,27.25-11.21,7.73-27.56,12.25-39.4,3.33-5.76-4.34-9.58-11-11.05-18.07-.96-4.61-.94-9.52.74-13.93,2.01-5.29,6.44-9.6,11.78-11.45,25-8.7,43.67,27.02,54.23,43.65,13.03,20.53,26.08,42.27,46.72,56.09,6.45,4.32,13.74,7.8,21.49,8.17,28.69,1.36,31.77-38.15,21.85-57.13-8.03-15.35-12.75-29.16-11.37-45.37,1.33-15.67,10.25-32.46,15.97-46.84,8.46-21.26,17.37-42.37,26.97-63.14,2.89-6.24,5.75-15.5,10.62-20.31-2.08,8.14-7.8,16.57-11.44,24.26-4.15,8.77-8.2,17.58-12.16,26.43-8.41,18.79-16.42,37.82-22.1,57.6-2.73,9.51-4.93,19.3-4.74,29.19.09,4.58.87,9.53,4.15,12.73,2.64,2.58,6.44,3.56,10.12,3.88,11.53,1.01,22.91-3.51,32.69-9.7,24.22-15.33,40.55-40.5,52.67-66.47,11.93-25.56,20.6-52.53,33.44-77.69-17.56,34.51-33.67,70.26-44.26,107.59-2.78,9.79-5.17,19.83-5.05,30.01.06,4.6.81,9.57,4.08,12.8,2.77,2.73,6.85,3.69,10.74,3.81,30.8.97,58.26-36.1,74.37-58.28,10.89-15,53.57-95.9,54.97-98.63s-73.6,131.54-56.42,156.7,81.29-58.79,81.29-58.79"/>
  <polygon class="cls-1" points="913.66 296.65 898.86 309.78 916.8 301.08 915.05 316.96 921.66 305.97 930.83 309.99 922.76 301.43 926.61 291.63 920.26 296.23 910.15 289.79 913.66 296.65"/>
</svg>